<mxfile host="app.diagrams.net" modified="2021-12-21T16:15:08.626Z" agent="5.0 (Windows NT 10.0; Win64; x64) AppleWebKit/537.36 (KHTML, like Gecko) Chrome/96.0.4664.110 Safari/537.36" etag="4jBNJEoFfssq2VafvT-0" version="16.0.0" type="github">
  <diagram id="C3kk8iVVJ5LhTP5NbqHd" name="Page-1">
    <mxGraphModel dx="2062" dy="1122" grid="1" gridSize="10" guides="1" tooltips="1" connect="1" arrows="1" fold="1" page="1" pageScale="1" pageWidth="850" pageHeight="1100" math="0" shadow="0">
      <root>
        <mxCell id="0" />
        <mxCell id="1" parent="0" />
        <mxCell id="zwtZ1gS0Mq2enyTm4LLa-1" value="Opt" style="shape=umlFrame;whiteSpace=wrap;html=1;" parent="1" vertex="1">
          <mxGeometry x="170" y="300" width="480" height="130" as="geometry" />
        </mxCell>
        <mxCell id="VYZUzuegT2Te2G6oGABQ-1" value="User" style="shape=umlActor;verticalLabelPosition=bottom;verticalAlign=top;html=1;" parent="1" vertex="1">
          <mxGeometry x="150" y="130" width="30" height="60" as="geometry" />
        </mxCell>
        <mxCell id="VYZUzuegT2Te2G6oGABQ-2" value="&lt;u&gt;:Total Health&lt;/u&gt;&lt;u&gt;&lt;br&gt;&lt;/u&gt;" style="html=1;" parent="1" vertex="1">
          <mxGeometry x="600" y="140" width="110" height="50" as="geometry" />
        </mxCell>
        <mxCell id="VYZUzuegT2Te2G6oGABQ-3" value="" style="endArrow=none;dashed=1;html=1;rounded=0;" parent="1" edge="1">
          <mxGeometry width="50" height="50" relative="1" as="geometry">
            <mxPoint x="160" y="790" as="sourcePoint" />
            <mxPoint x="165" y="220" as="targetPoint" />
          </mxGeometry>
        </mxCell>
        <mxCell id="VYZUzuegT2Te2G6oGABQ-4" value="" style="endArrow=none;dashed=1;html=1;rounded=0;" parent="1" edge="1">
          <mxGeometry width="50" height="50" relative="1" as="geometry">
            <mxPoint x="654" y="790" as="sourcePoint" />
            <mxPoint x="654.4099999999999" y="190" as="targetPoint" />
          </mxGeometry>
        </mxCell>
        <mxCell id="aOVv1BIqw7hd5nw9u_mf-1" value="" style="endArrow=classic;html=1;rounded=0;dashed=1;" parent="1" edge="1">
          <mxGeometry width="50" height="50" relative="1" as="geometry">
            <mxPoint x="650" y="270" as="sourcePoint" />
            <mxPoint x="170" y="270" as="targetPoint" />
          </mxGeometry>
        </mxCell>
        <mxCell id="aOVv1BIqw7hd5nw9u_mf-2" value="Exercise Page Displayed" style="edgeLabel;html=1;align=center;verticalAlign=middle;resizable=0;points=[];" parent="aOVv1BIqw7hd5nw9u_mf-1" vertex="1" connectable="0">
          <mxGeometry x="0.0542" y="1" relative="1" as="geometry">
            <mxPoint as="offset" />
          </mxGeometry>
        </mxCell>
        <mxCell id="aOVv1BIqw7hd5nw9u_mf-3" value="" style="endArrow=classic;html=1;rounded=0;" parent="1" edge="1">
          <mxGeometry width="50" height="50" relative="1" as="geometry">
            <mxPoint x="170" y="240" as="sourcePoint" />
            <mxPoint x="650" y="240" as="targetPoint" />
          </mxGeometry>
        </mxCell>
        <mxCell id="aOVv1BIqw7hd5nw9u_mf-4" value="goToExercisePage()" style="edgeLabel;html=1;align=center;verticalAlign=middle;resizable=0;points=[];" parent="aOVv1BIqw7hd5nw9u_mf-3" vertex="1" connectable="0">
          <mxGeometry x="-0.1125" y="2" relative="1" as="geometry">
            <mxPoint x="7" y="2" as="offset" />
          </mxGeometry>
        </mxCell>
        <mxCell id="aOVv1BIqw7hd5nw9u_mf-8" value="" style="endArrow=classic;html=1;rounded=0;" parent="1" edge="1">
          <mxGeometry width="50" height="50" relative="1" as="geometry">
            <mxPoint x="170" y="460" as="sourcePoint" />
            <mxPoint x="650" y="460" as="targetPoint" />
          </mxGeometry>
        </mxCell>
        <mxCell id="aOVv1BIqw7hd5nw9u_mf-9" value="onClickExerciseButton()" style="edgeLabel;html=1;align=center;verticalAlign=middle;resizable=0;points=[];" parent="aOVv1BIqw7hd5nw9u_mf-8" vertex="1" connectable="0">
          <mxGeometry x="-0.1125" y="2" relative="1" as="geometry">
            <mxPoint as="offset" />
          </mxGeometry>
        </mxCell>
        <mxCell id="aOVv1BIqw7hd5nw9u_mf-10" value="" style="endArrow=classic;html=1;rounded=0;" parent="1" edge="1">
          <mxGeometry width="50" height="50" relative="1" as="geometry">
            <mxPoint x="170" y="520" as="sourcePoint" />
            <mxPoint x="649.9999999999998" y="520" as="targetPoint" />
          </mxGeometry>
        </mxCell>
        <mxCell id="aOVv1BIqw7hd5nw9u_mf-11" value="goToStopwatchPage()" style="edgeLabel;html=1;align=center;verticalAlign=middle;resizable=0;points=[];" parent="aOVv1BIqw7hd5nw9u_mf-10" vertex="1" connectable="0">
          <mxGeometry x="-0.1125" y="2" relative="1" as="geometry">
            <mxPoint as="offset" />
          </mxGeometry>
        </mxCell>
        <mxCell id="aOVv1BIqw7hd5nw9u_mf-13" value="" style="endArrow=classic;html=1;rounded=0;dashed=1;" parent="1" edge="1">
          <mxGeometry width="50" height="50" relative="1" as="geometry">
            <mxPoint x="649.9999999999998" y="680" as="sourcePoint" />
            <mxPoint x="170" y="680" as="targetPoint" />
          </mxGeometry>
        </mxCell>
        <mxCell id="aOVv1BIqw7hd5nw9u_mf-14" value="Timer Stops" style="edgeLabel;html=1;align=center;verticalAlign=middle;resizable=0;points=[];" parent="aOVv1BIqw7hd5nw9u_mf-13" vertex="1" connectable="0">
          <mxGeometry x="0.0542" y="1" relative="1" as="geometry">
            <mxPoint as="offset" />
          </mxGeometry>
        </mxCell>
        <mxCell id="aOVv1BIqw7hd5nw9u_mf-15" value="" style="endArrow=classic;html=1;rounded=0;dashed=1;" parent="1" edge="1">
          <mxGeometry width="50" height="50" relative="1" as="geometry">
            <mxPoint x="649.9999999999998" y="540" as="sourcePoint" />
            <mxPoint x="170" y="540" as="targetPoint" />
          </mxGeometry>
        </mxCell>
        <mxCell id="aOVv1BIqw7hd5nw9u_mf-16" value="&lt;span style=&quot;font-size: 13px ; color: #000000 ; font-weight: normal ; text-decoration: none ; font-family: &amp;#34;arial&amp;#34; ; font-style: normal&quot;&gt;Stopwatch Screen Displayed&lt;/span&gt;" style="edgeLabel;html=1;align=center;verticalAlign=middle;resizable=0;points=[];" parent="aOVv1BIqw7hd5nw9u_mf-15" vertex="1" connectable="0">
          <mxGeometry x="0.0542" y="1" relative="1" as="geometry">
            <mxPoint as="offset" />
          </mxGeometry>
        </mxCell>
        <mxCell id="aOVv1BIqw7hd5nw9u_mf-17" value="" style="endArrow=classic;html=1;rounded=0;" parent="1" edge="1">
          <mxGeometry width="50" height="50" relative="1" as="geometry">
            <mxPoint x="170" y="590" as="sourcePoint" />
            <mxPoint x="649.9999999999998" y="590" as="targetPoint" />
          </mxGeometry>
        </mxCell>
        <mxCell id="aOVv1BIqw7hd5nw9u_mf-18" value="startStopwatch()" style="edgeLabel;html=1;align=center;verticalAlign=middle;resizable=0;points=[];" parent="aOVv1BIqw7hd5nw9u_mf-17" vertex="1" connectable="0">
          <mxGeometry x="-0.1125" y="2" relative="1" as="geometry">
            <mxPoint as="offset" />
          </mxGeometry>
        </mxCell>
        <mxCell id="zwtZ1gS0Mq2enyTm4LLa-3" value="" style="endArrow=classic;html=1;rounded=0;" parent="1" edge="1">
          <mxGeometry width="50" height="50" relative="1" as="geometry">
            <mxPoint x="170" y="340" as="sourcePoint" />
            <mxPoint x="650" y="340" as="targetPoint" />
          </mxGeometry>
        </mxCell>
        <mxCell id="zwtZ1gS0Mq2enyTm4LLa-4" value="onClickCalendar()" style="edgeLabel;html=1;align=center;verticalAlign=middle;resizable=0;points=[];" parent="zwtZ1gS0Mq2enyTm4LLa-3" vertex="1" connectable="0">
          <mxGeometry x="-0.1125" y="2" relative="1" as="geometry">
            <mxPoint x="7" y="2" as="offset" />
          </mxGeometry>
        </mxCell>
        <mxCell id="zwtZ1gS0Mq2enyTm4LLa-5" value="" style="endArrow=classic;html=1;rounded=0;" parent="1" edge="1">
          <mxGeometry width="50" height="50" relative="1" as="geometry">
            <mxPoint x="170" y="390" as="sourcePoint" />
            <mxPoint x="650" y="390" as="targetPoint" />
          </mxGeometry>
        </mxCell>
        <mxCell id="zwtZ1gS0Mq2enyTm4LLa-6" value="selectDate()" style="edgeLabel;html=1;align=center;verticalAlign=middle;resizable=0;points=[];" parent="zwtZ1gS0Mq2enyTm4LLa-5" vertex="1" connectable="0">
          <mxGeometry x="-0.1125" y="2" relative="1" as="geometry">
            <mxPoint x="7" y="2" as="offset" />
          </mxGeometry>
        </mxCell>
        <mxCell id="zwtZ1gS0Mq2enyTm4LLa-7" value="" style="endArrow=classic;html=1;rounded=0;dashed=1;" parent="1" edge="1">
          <mxGeometry width="50" height="50" relative="1" as="geometry">
            <mxPoint x="650" y="360" as="sourcePoint" />
            <mxPoint x="170" y="360" as="targetPoint" />
          </mxGeometry>
        </mxCell>
        <mxCell id="zwtZ1gS0Mq2enyTm4LLa-8" value="&lt;font style=&quot;font-size: 11px&quot;&gt;&lt;span style=&quot;color: rgb(0 , 0 , 0) ; font-weight: normal ; text-decoration: none ; font-family: &amp;#34;arial&amp;#34; ; font-style: normal&quot;&gt;Prompts User to Select a Date&lt;/span&gt;&lt;/font&gt;" style="edgeLabel;html=1;align=center;verticalAlign=middle;resizable=0;points=[];" parent="zwtZ1gS0Mq2enyTm4LLa-7" vertex="1" connectable="0">
          <mxGeometry x="0.0542" y="1" relative="1" as="geometry">
            <mxPoint as="offset" />
          </mxGeometry>
        </mxCell>
        <mxCell id="zwtZ1gS0Mq2enyTm4LLa-9" value="" style="endArrow=classic;html=1;rounded=0;dashed=1;" parent="1" edge="1">
          <mxGeometry width="50" height="50" relative="1" as="geometry">
            <mxPoint x="650" y="410" as="sourcePoint" />
            <mxPoint x="170" y="410" as="targetPoint" />
          </mxGeometry>
        </mxCell>
        <mxCell id="zwtZ1gS0Mq2enyTm4LLa-10" value="Exercise Buttons from Selected Date" style="edgeLabel;html=1;align=center;verticalAlign=middle;resizable=0;points=[];" parent="zwtZ1gS0Mq2enyTm4LLa-9" vertex="1" connectable="0">
          <mxGeometry x="0.0542" y="1" relative="1" as="geometry">
            <mxPoint as="offset" />
          </mxGeometry>
        </mxCell>
        <mxCell id="zwtZ1gS0Mq2enyTm4LLa-12" value="" style="endArrow=classic;html=1;rounded=0;dashed=1;" parent="1" edge="1">
          <mxGeometry width="50" height="50" relative="1" as="geometry">
            <mxPoint x="650" y="480" as="sourcePoint" />
            <mxPoint x="170" y="480" as="targetPoint" />
          </mxGeometry>
        </mxCell>
        <mxCell id="zwtZ1gS0Mq2enyTm4LLa-13" value="&lt;span style=&quot;font-size: 11px ; color: rgb(0 , 0 , 0) ; font-weight: normal ; text-decoration: none ; font-family: &amp;#34;arial&amp;#34; ; font-style: normal&quot;&gt;Credentials for selected exercise&lt;/span&gt;" style="edgeLabel;html=1;align=center;verticalAlign=middle;resizable=0;points=[];fontSize=11;" parent="zwtZ1gS0Mq2enyTm4LLa-12" vertex="1" connectable="0">
          <mxGeometry x="0.0542" y="1" relative="1" as="geometry">
            <mxPoint as="offset" />
          </mxGeometry>
        </mxCell>
        <mxCell id="zwtZ1gS0Mq2enyTm4LLa-19" value="" style="endArrow=classic;html=1;rounded=0;dashed=1;" parent="1" edge="1">
          <mxGeometry width="50" height="50" relative="1" as="geometry">
            <mxPoint x="649.9999999999998" y="610" as="sourcePoint" />
            <mxPoint x="170" y="610" as="targetPoint" />
          </mxGeometry>
        </mxCell>
        <mxCell id="zwtZ1gS0Mq2enyTm4LLa-20" value="Timer Starts" style="edgeLabel;html=1;align=center;verticalAlign=middle;resizable=0;points=[];" parent="zwtZ1gS0Mq2enyTm4LLa-19" vertex="1" connectable="0">
          <mxGeometry x="0.0542" y="1" relative="1" as="geometry">
            <mxPoint as="offset" />
          </mxGeometry>
        </mxCell>
        <mxCell id="WCY1Anhig1JMxl1Tuy_w-1" value="Use Stopwatch" style="text;html=1;align=center;verticalAlign=middle;resizable=0;points=[];autosize=1;strokeColor=none;fillColor=none;fontSize=22;" parent="1" vertex="1">
          <mxGeometry x="320" y="110" width="160" height="30" as="geometry" />
        </mxCell>
        <mxCell id="Q1Gr1rMFradiHkmqwaRf-1" value="" style="endArrow=classic;html=1;rounded=0;" edge="1" parent="1">
          <mxGeometry width="50" height="50" relative="1" as="geometry">
            <mxPoint x="170" y="660" as="sourcePoint" />
            <mxPoint x="650" y="660" as="targetPoint" />
          </mxGeometry>
        </mxCell>
        <mxCell id="Q1Gr1rMFradiHkmqwaRf-2" value="stopStopwatch" style="edgeLabel;html=1;align=center;verticalAlign=middle;resizable=0;points=[];" vertex="1" connectable="0" parent="Q1Gr1rMFradiHkmqwaRf-1">
          <mxGeometry x="-0.1125" y="2" relative="1" as="geometry">
            <mxPoint as="offset" />
          </mxGeometry>
        </mxCell>
      </root>
    </mxGraphModel>
  </diagram>
</mxfile>
